 <svg version="1.0" xmlns="http://www.w3.org/2000/svg" width="700.000000pt" height="700.000000pt" viewBox="0 0 700.000000 700.000000" preserveAspectRatio="xMidYMid meet">
<metadata>
Created by potrace 1.12, written by Peter Selinger 2001-2015
</metadata>
<g transform="translate(0.000000,700.000000) scale(0.100000,-0.100000)" fill="#000000" stroke="none">
<path d="M3060 5360 l0 -110 -110 0 -110 0 0 -110 0 -110 -110 0 -110 0 0
-105 0 -104 -107 -3 -108 -3 -3 -767 -2 -768 -215 0 -215 0 0 -105 0 -105
-110 0 -110 0 0 -110 0 -110 -110 0 -110 0 0 -110 0 -110 -110 0 -110 0 0
-110 0 -109 -107 -3 -108 -3 0 -765 0 -765 108 -3 107 -3 0 -109 0 -110 110 0
110 0 0 -105 0 -105 110 0 110 0 0 -110 0 -110 110 0 110 0 0 -110 0 -110 220
0 219 0 -1 320 c-1 176 2 324 6 328 9 8 412 10 420 1 4 -3 9 -151 13 -328 l6
-321 323 0 323 0 3 107 3 108 323 3 322 2 2 205 c0 113 1 211 2 218 1 8 -10
11 -34 9 -19 -2 -67 -1 -106 3 l-71 6 -8 414 c-4 227 -4 422 0 434 6 20 13 21
111 21 l104 0 0 49 c0 26 3 76 6 110 l7 61 431 -2 431 -3 3 -322 2 -321 -92
-7 c-113 -8 -323 -3 -335 8 -4 5 -9 102 -10 215 l-1 207 -216 3 -216 2 0 -215
0 -215 220 0 220 0 0 -220 0 -220 213 -2 212 -3 3 -217 2 -218 -200 0 c-127 0
-200 -4 -200 -10 0 -6 66 -10 178 -10 125 0 182 -4 190 -12 8 -8 12 -45 12
-100 0 -52 4 -88 10 -88 6 0 10 43 10 110 l0 110 218 -2 217 -3 3 -107 3 -108
109 0 110 0 0 325 0 325 110 0 110 0 0 660 0 659 -107 3 -108 3 -5 215 -5 215
-107 3 -108 3 0 214 0 214 108 3 107 3 3 212 2 212 108 3 107 3 3 108 3 107
109 0 110 0 0 225 0 225 -110 0 -110 0 0 215 0 214 108 3 107 3 0 110 0 110
-107 3 -107 3 -3 107 -3 107 -327 3 -328 2 0 105 0 104 -107 3 -108 3 -3 107
-3 107 -107 3 -107 3 -3 108 -3 107 -874 0 -875 0 0 -110z m435 -220 l0 -105
-215 0 -215 0 -3 94 c-1 52 0 101 2 108 5 11 47 13 218 11 l213 -3 0 -105z
m875 0 l0 -110 -215 0 -215 0 0 110 0 110 215 0 215 0 0 -110z m-1312 -327 l2
-213 -215 0 -215 0 0 105 0 104 108 3 107 3 3 108 3 108 102 -3 102 -3 3 -212z
m872 2 l0 -215 -215 0 -215 0 0 208 c0 115 3 212 7 215 3 4 100 7 215 7 l208
0 0 -215z m878 -2 l2 -213 -215 0 -215 0 0 215 0 215 213 -2 212 -3 3 -212z
m-1306 -440 l3 -218 218 0 219 0 -2 218 -1 217 216 0 216 0 -2 -217 -1 -218
218 0 219 0 3 218 2 217 220 0 220 0 2 -217 3 -218 108 -3 107 -3 0 -104 0
-105 -1420 0 -1420 0 0 105 0 105 213 2 212 3 3 218 2 217 220 0 220 0 2 -217z
m2398 112 l0 -105 -215 0 -215 0 0 105 0 105 215 0 215 0 0 -105z m-2838 -882
l3 -108 218 -3 217 -2 0 -110 0 -110 110 0 110 0 0 110 0 110 110 0 110 0 0
110 0 110 105 0 105 0 0 -110 0 -110 -105 0 -104 0 -3 -107 -3 -108 -107 -3
-108 -3 0 -104 0 -105 330 0 330 0 0 105 0 104 108 3 107 3 3 108 3 107 104 0
104 0 3 -107 3 -108 108 -3 107 -3 0 111 0 110 110 0 110 0 0 110 0 110 110 0
110 0 0 -110 0 -110 110 0 110 0 0 -110 0 -111 -107 3 -108 3 -3 108 -3 107
-109 0 -109 0 -3 -107 -3 -108 -107 -3 -108 -3 0 -104 0 -105 218 -2 217 -3 3
-102 3 -103 -111 0 -110 0 -2 -327 -3 -328 -107 -3 -107 -3 -3 -107 -3 -107
-542 -3 -543 -2 0 110 0 110 -110 0 -110 0 -2 -872 -3 -873 -215 0 -215 0 -5
105 -5 105 -25 -3 c-14 -2 -62 0 -107 3 l-83 7 0 213 0 213 83 7 c45 4 94 5
107 4 l25 -4 3 218 2 217 -214 0 -214 0 -7 -145 c-4 -79 -4 -172 0 -205 11
-93 17 -90 -221 -90 -184 0 -204 2 -211 18 -4 9 -7 108 -5 220 l3 202 217 0
217 0 0 220 0 220 -107 0 -108 0 0 215 0 215 103 0 104 0 6 -107 c4 -58 7
-155 7 -215 l0 -108 215 0 214 0 3 108 3 107 218 3 217 2 0 110 0 110 -435 0
-435 0 -2 218 -3 217 -107 3 -108 3 0 429 0 430 215 0 214 0 3 -107z m1308
-223 l0 -110 -105 0 -105 0 0 110 0 110 105 0 105 0 0 -110z m-1990 -484 c0
-25 40 -71 62 -71 7 0 13 -8 13 -18 0 -10 7 -22 15 -27 13 -9 13 -10 0 -10
-12 0 -12 -2 -2 -9 11 -7 13 -40 10 -156 -3 -133 -5 -148 -23 -161 -11 -8 -29
-22 -40 -32 -11 -9 -33 -16 -50 -16 l-30 2 28 -5 c20 -3 27 -9 23 -20 -3 -8
-6 -18 -6 -23 0 -5 -20 -12 -45 -16 -26 -3 -52 -12 -59 -20 -9 -9 -15 -55 -18
-146 -3 -73 -9 -141 -13 -151 -4 -10 -20 -24 -36 -33 l-29 -15 0 -444 c0 -285
-4 -446 -10 -450 -6 -3 -10 -14 -10 -25 0 -24 -19 -30 -99 -30 -108 0 -153 40
-170 151 -9 58 -16 65 -80 74 -89 13 -123 47 -137 135 -8 50 -26 70 -65 70
-50 0 -106 29 -131 68 -23 37 -23 39 -26 448 l-3 411 28 11 c15 5 35 12 44 15
15 5 16 19 12 111 l-6 106 112 0 111 0 0 110 0 110 103 1 c101 0 231 15 160
18 -26 1 -31 4 -26 19 13 38 31 42 215 42 l178 0 0 -24z m3298 -1039 l3 -108
-103 3 -103 3 -3 94 c-1 52 0 101 2 108 4 11 28 13 103 11 l98 -3 3 -108z m2
-867 l0 -330 -215 0 -215 0 0 323 c0 178 3 327 7 330 3 4 100 7 215 7 l208 0
0 -330z"></path>
<path d="M3098 4183 c-10 -2 -18 -9 -18 -14 0 -5 84 -9 200 -9 182 0 238 7
178 24 -26 7 -334 6 -360 -1z"></path>
<path d="M3973 4183 c-42 -17 8 -23 182 -23 178 0 233 8 173 24 -27 7 -338 7
-355 -1z"></path>
<path d="M4848 4183 c-10 -2 -18 -9 -18 -14 0 -5 84 -9 200 -9 182 0 238 7
178 24 -26 7 -334 6 -360 -1z"></path>
<path d="M3040 4045 c0 -37 4 -65 10 -65 6 0 10 28 10 65 0 37 -4 65 -10 65
-6 0 -10 -28 -10 -65z"></path>
<path d="M5250 4045 c0 -37 4 -65 10 -65 6 0 10 28 10 65 0 37 -4 65 -10 65
-6 0 -10 -28 -10 -65z"></path>
<path d="M3040 3165 c0 -190 4 -295 10 -295 6 0 10 105 10 295 0 190 -4 295
-10 295 -6 0 -10 -105 -10 -295z"></path>
<path d="M4374 2837 c-2 -7 -3 -58 -2 -113 l3 -99 328 -3 327 -2 0 115 0 115
-325 0 c-261 0 -327 -3 -331 -13z"></path>
<path d="M3240 2831 c0 -5 5 -13 10 -16 6 -3 10 -42 10 -86 0 -48 4 -79 10
-79 7 0 10 33 8 92 -3 79 -6 93 -20 96 -10 2 -18 -1 -18 -7z"></path>
<path d="M3460 2611 c0 -5 5 -13 10 -16 6 -3 10 -37 10 -76 0 -41 4 -69 10
-69 7 0 10 30 8 82 -3 70 -6 83 -20 86 -10 2 -18 -1 -18 -7z"></path>
<path d="M3310 1980 c0 -6 70 -10 190 -10 120 0 190 4 190 10 0 6 -70 10 -190
10 -120 0 -190 -4 -190 -10z"></path>
<path d="M3260 1750 c0 -120 4 -190 10 -190 6 0 10 70 10 190 0 120 -4 190
-10 190 -6 0 -10 -70 -10 -190z"></path>
<path d="M3310 1520 c0 -6 70 -10 190 -10 120 0 190 4 190 10 0 6 -70 10 -190
10 -120 0 -190 -4 -190 -10z"></path>
<path d="M3320 1110 c0 -6 67 -10 180 -10 113 0 180 4 180 10 0 6 -67 10 -180
10 -113 0 -180 -4 -180 -10z"></path>
<path d="M3260 875 c0 -123 4 -195 10 -195 6 0 10 72 10 195 0 123 -4 195 -10
195 -6 0 -10 -72 -10 -195z"></path>
<path d="M3320 640 c0 -6 67 -10 180 -10 113 0 180 4 180 10 0 6 -67 10 -180
10 -113 0 -180 -4 -180 -10z"></path>
<path d="M2358 2853 c6 -2 18 -2 25 0 6 3 1 5 -13 5 -14 0 -19 -2 -12 -5z"></path>
<path d="M2412 2805 c0 -16 2 -22 5 -12 2 9 2 23 0 30 -3 6 -5 -1 -5 -18z"></path>
<path d="M2411 2754 c0 -11 3 -14 6 -6 3 7 2 16 -1 19 -3 4 -6 -2 -5 -13z"></path>
<path d="M2414 2565 c0 -66 1 -92 3 -57 2 34 2 88 0 120 -2 31 -3 3 -3 -63z"></path>
<path d="M2193 2055 c0 -22 2 -30 4 -17 2 12 2 30 0 40 -3 9 -5 -1 -4 -23z"></path>
<path d="M2123 1083 c9 -2 25 -2 35 0 9 3 1 5 -18 5 -19 0 -27 -2 -17 -5z"></path>
<path d="M5290 1080 c0 -6 65 -10 175 -10 110 0 175 4 175 10 0 6 -65 10 -175
10 -110 0 -175 -4 -175 -10z"></path>
<path d="M4570 1640 c0 -40 4 -70 10 -70 6 0 10 30 10 70 0 40 -4 70 -10 70
-6 0 -10 -30 -10 -70z"></path>
<path d="M4630 1520 c0 -6 68 -10 185 -10 117 0 185 4 185 10 0 6 -68 10 -185
10 -117 0 -185 -4 -185 -10z"></path>
<path d="M3980 1081 c0 -6 33 -11 73 -13 l72 -3 3 -187 c1 -117 6 -188 12
-188 7 0 9 71 8 198 l-3 197 -82 3 c-51 2 -83 -1 -83 -7z"></path>
<path d="M4190 640 c0 -6 74 -11 188 -12 l187 -3 3 -182 c1 -111 6 -183 12
-183 6 0 10 75 10 195 l0 195 -200 0 c-124 0 -200 -4 -200 -10z"></path>
<path d="M2440 450 c0 -6 68 -10 185 -10 117 0 185 4 185 10 0 6 -68 10 -185
10 -117 0 -185 -4 -185 -10z"></path>
<path d="M4160 110 l0 -110 214 0 214 0 4 103 c2 56 2 105 0 110 -2 4 -100 7
-218 7 l-214 0 0 -110z"></path>
<path d="M3700 95 c0 -57 4 -95 10 -95 6 0 10 38 10 95 0 57 -4 95 -10 95 -6
0 -10 -38 -10 -95z"></path>
</g>
</svg>